<svg width="149" height="149" viewBox="0 0 149 149" fill="none" xmlns="http://www.w3.org/2000/svg">
<path d="M109.639 69.5333C108.211 67.6708 106.473 66.0567 104.859 64.4425C100.699 60.7175 95.9808 58.0479 92.0075 54.1367C82.7571 45.0725 80.7083 30.1104 86.6062 18.625C80.7083 20.0529 75.5554 23.2813 71.1475 26.82C55.0679 39.7333 48.7354 62.5179 56.3096 82.0742C56.5579 82.695 56.8062 83.3158 56.8062 84.1229C56.8062 85.4887 55.875 86.7304 54.6333 87.2271C53.2054 87.8479 51.7154 87.4754 50.5358 86.4821C50.1814 86.189 49.8863 85.8308 49.6667 85.4267C42.6513 76.5487 41.5338 63.8217 46.2521 53.64C35.8842 62.0833 30.2346 76.3625 31.0417 89.8346C31.4142 92.9387 31.7867 96.0429 32.8421 99.1471C33.7113 102.872 35.3875 106.597 37.25 109.888C43.955 120.628 55.5646 128.326 68.0433 129.878C81.3292 131.555 95.5463 129.133 105.728 119.945C117.089 109.639 121.062 93.125 115.227 78.97L114.42 77.3558C113.116 74.5 109.639 69.5333 109.639 69.5333ZM90.0208 108.646C88.2825 110.136 85.4267 111.75 83.1917 112.371C76.2383 114.854 69.285 111.377 65.1875 107.28C72.5754 105.542 76.9833 100.078 78.2871 94.5529C79.3425 89.5862 77.3558 85.4887 76.5487 80.7083C75.8037 76.1142 75.9279 72.2029 77.6042 67.9192C78.7838 70.2783 80.0254 72.6375 81.5154 74.5C86.2958 80.7083 93.8079 83.44 95.4221 91.8833C95.6704 92.7525 95.7946 93.6217 95.7946 94.5529C95.9808 99.6437 93.7458 105.231 90.0208 108.646Z" fill="#F33D24"/>
</svg>
