<svg width="136" height="139" viewBox="0 0 136 139" fill="none" xmlns="http://www.w3.org/2000/svg">
<path d="M100.073 64.8667C98.77 63.1292 97.1833 61.6233 95.71 60.1175C91.9133 56.6425 87.6067 54.1521 83.98 50.5033C75.5367 42.0475 73.6667 28.0896 79.05 17.375C73.6667 18.7071 68.9633 21.7188 64.94 25.02C50.2633 37.0667 44.4833 58.3221 51.3967 76.5658C51.6233 77.145 51.85 77.7242 51.85 78.4771C51.85 79.7512 51 80.9096 49.8667 81.3729C48.5633 81.9521 47.2033 81.6046 46.1267 80.6779C45.8031 80.4045 45.5338 80.0703 45.3333 79.6933C38.93 71.4113 37.91 59.5383 42.2167 50.04C32.7533 57.9167 27.5967 71.2375 28.3333 83.8054C28.6733 86.7012 29.0133 89.5971 29.9767 92.4929C30.77 95.9679 32.3 99.4429 34 102.513C40.12 112.532 50.7167 119.714 62.1067 121.162C74.2333 122.725 87.21 120.467 96.5033 111.895C106.873 102.281 110.5 86.875 105.173 73.67L104.437 72.1642C103.247 69.5 100.073 64.8667 100.073 64.8667ZM82.1667 101.354C80.58 102.744 77.9733 104.25 75.9333 104.829C69.5867 107.146 63.24 103.903 59.5 100.08C66.2433 98.4583 70.2667 93.3617 71.4567 88.2071C72.42 83.5737 70.6067 79.7512 69.87 75.2917C69.19 71.0058 69.3033 67.3571 70.8333 63.3608C71.91 65.5617 73.0433 67.7625 74.4033 69.5C78.7667 75.2917 85.6233 77.84 87.0967 85.7167C87.3233 86.5275 87.4367 87.3383 87.4367 88.2071C87.6067 92.9562 85.5667 98.1687 82.1667 101.354Z" fill="#E46E3B"/>
</svg>
