<svg width="367" height="367" viewBox="0 0 367 367" fill="none" xmlns="http://www.w3.org/2000/svg">
<g clip-path="url(#clip0_44_91)">
<path fill-rule="evenodd" clip-rule="evenodd" d="M146.588 329.724C185.465 339.417 226.601 333.27 260.946 312.633C295.291 291.997 320.031 258.562 329.724 219.685C339.417 180.807 333.27 139.671 312.633 105.327C291.997 70.982 258.562 46.2417 219.685 36.5485C180.807 26.8552 139.671 33.003 105.327 53.6394C70.982 74.2758 46.2417 107.71 36.5485 146.588C26.8552 185.465 33.003 226.601 53.6394 260.946C74.2758 295.291 107.71 320.031 146.588 329.724ZM140.58 113.943C133.398 120.502 128.859 127.623 126.953 135.264C126.026 138.983 126.812 142.858 129.315 146.868C131.818 150.879 135.457 153.46 140.239 154.652C148.356 156.676 155.005 153.507 160.193 145.108C165.442 137.172 170.843 131.512 176.415 128.133C181.982 124.772 189.447 124.259 198.865 126.607C206.909 128.613 212.921 132.447 216.905 138.17C220.875 143.87 222.06 149.965 220.452 156.415C219.668 159.656 218.013 162.622 215.667 164.992C213.279 167.41 210.562 169.477 207.596 171.135C202.862 173.699 198.052 176.121 193.173 178.399C185.655 182.013 179.579 185.227 174.959 188.065C170.358 190.908 166.302 194.529 162.852 198.923C151.264 220.265 181.444 229.736 192.578 215.21C193.832 213.849 195.563 212.451 197.778 210.979C200.008 209.53 202.883 207.912 206.423 206.128C215.376 201.801 224.245 197.303 233.025 192.636C238.006 189.908 242.621 186.309 246.859 181.878C251.275 177.122 254.356 171.283 255.789 164.953C257.959 156.249 257.386 147.543 254.05 138.829C250.738 130.101 244.87 122.41 236.457 115.719C228.039 109.047 217.639 104.157 205.234 101.064C191.895 97.7385 179.583 97.3936 168.285 100.085C156.992 102.758 147.762 107.385 140.58 113.943ZM147.446 253.45C146.235 258.31 147.003 263.452 149.583 267.745C152.162 272.038 156.342 275.131 161.201 276.343C166.061 277.554 171.203 276.786 175.496 274.206C179.789 271.627 182.882 267.447 184.093 262.588C185.305 257.728 184.537 252.586 181.957 248.293C179.378 244 175.198 240.907 170.339 239.696C165.479 238.484 160.337 239.252 156.044 241.832C151.751 244.411 148.658 248.591 147.446 253.45Z" fill="#F33D24"/>
</g>
<defs>
<clipPath id="clip0_44_91">
<rect width="302.151" height="302.151" fill="white" transform="translate(73.0969) rotate(14)"/>
</clipPath>
</defs>
</svg>
