<svg width="271" height="271" viewBox="0 0 271 271" fill="none" xmlns="http://www.w3.org/2000/svg">
<g clip-path="url(#clip0_44_71)">
<path fill-rule="evenodd" clip-rule="evenodd" d="M108.46 243.961C137.225 251.133 167.661 246.585 193.073 231.316C218.484 216.047 236.789 191.309 243.961 162.544C251.133 133.778 246.584 103.342 231.316 77.9307C216.047 52.5192 191.309 34.214 162.544 27.042C133.778 19.87 103.342 24.4188 77.9306 39.6875C52.5192 54.9563 34.214 79.6943 27.042 108.46C19.87 137.225 24.4187 167.661 39.6875 193.073C54.9562 218.484 79.6943 236.789 108.46 243.961ZM104.014 84.3062C98.7001 89.159 95.3417 94.4273 93.9321 100.081C93.2459 102.833 93.8272 105.7 95.6794 108.667C97.5316 111.634 100.224 113.544 103.762 114.426C109.768 115.924 114.687 113.579 118.526 107.365C122.409 101.493 126.406 97.3051 130.528 94.805C134.647 92.3183 140.171 91.9387 147.139 93.6761C153.091 95.1601 157.539 97.9971 160.487 102.231C163.424 106.448 164.301 110.958 163.111 115.731C162.531 118.129 161.307 120.323 159.571 122.077C157.804 123.865 155.794 125.396 153.599 126.622C150.096 128.519 146.537 130.311 142.928 131.996C137.365 134.67 132.869 137.049 129.451 139.148C126.047 141.252 123.046 143.931 120.493 147.182C111.919 162.973 134.249 169.98 142.487 159.233C143.415 158.226 144.696 157.191 146.335 156.102C147.985 155.03 150.112 153.833 152.731 152.513C159.355 149.312 165.917 145.984 172.414 142.53C176.1 140.512 179.514 137.849 182.65 134.57C185.917 131.051 188.196 126.731 189.257 122.048C190.862 115.608 190.438 109.166 187.97 102.719C185.52 96.2613 181.178 90.5708 174.953 85.6202C168.725 80.6833 161.03 77.0655 151.852 74.777C141.982 72.3162 132.872 72.061 124.513 74.0522C116.158 76.0298 109.328 79.4534 104.014 84.3062ZM109.095 187.527C108.198 191.122 108.767 194.927 110.676 198.103C112.584 201.28 115.676 203.568 119.272 204.464C122.868 205.361 126.672 204.792 129.849 202.884C133.025 200.975 135.313 197.883 136.21 194.287C137.106 190.692 136.538 186.887 134.629 183.711C132.72 180.534 129.628 178.246 126.033 177.349C122.437 176.453 118.632 177.022 115.456 178.93C112.28 180.839 109.991 183.931 109.095 187.527Z" fill="#E46E3B"/>
</g>
<defs>
<clipPath id="clip0_44_71">
<rect width="223.56" height="223.56" fill="white" transform="translate(54.084) rotate(14)"/>
</clipPath>
</defs>
</svg>
