<svg width="138" height="138" viewBox="0 0 138 138" fill="none" xmlns="http://www.w3.org/2000/svg">
<path d="M69.0598 65.7938L70.0263 67.8508L72.1658 67.0841L72.5617 66.9422C85.211 62.4095 95.0539 58.8825 102.293 55.0981C109.666 51.2435 114.721 46.9321 117.34 40.6268C121.436 30.7668 116.446 19.6341 106.719 15.5932C102.003 13.6343 96.7611 13.4317 91.9671 15.0332C89.705 10.4878 85.8092 6.90689 80.8207 4.83459C70.9607 0.738575 59.828 5.72863 55.7871 15.4561C53.2318 21.607 53.7939 28.1572 56.2785 36.0406C58.7215 43.7919 63.1652 53.2491 68.8795 65.4101L69.0598 65.7938ZM65.7938 69.7158L67.8508 68.7493L67.0841 66.6098L66.9422 66.2137C62.4095 53.5645 58.8825 43.7216 55.0981 36.4829C51.2435 29.1099 46.9321 24.0544 40.6268 21.4351C30.7668 17.3391 19.6341 22.3291 15.5932 32.0566C13.6343 36.7721 13.4317 42.0144 15.0332 46.8085C10.4878 49.0705 6.90689 52.9664 4.8346 57.9548C0.738577 67.8148 5.72864 78.9475 15.4561 82.9885C21.607 85.5437 28.1572 84.9817 36.0406 82.497C43.7919 80.0541 53.2491 75.6103 65.4101 69.8961L65.7938 69.7158ZM73.0348 69.0851L70.9863 70.0518L71.7469 72.1855L71.8189 72.3876C76.3574 85.1194 79.8867 95.0203 83.6838 102.294C87.5318 109.665 91.8434 114.721 98.1487 117.34C108.009 121.436 119.141 116.446 123.182 106.719C125.141 102.003 125.344 96.7611 123.742 91.9671C128.288 89.705 131.869 85.8092 133.941 80.8207C138.037 70.9607 133.047 59.828 123.319 55.7871C117.168 53.2318 110.618 53.7938 102.741 56.2819C94.9545 58.7411 85.4524 63.2252 73.226 68.9949L73.0348 69.0851ZM69.7158 72.9817L68.7493 70.9248L66.6098 71.6914L66.2136 71.8334C53.5644 76.3661 43.7216 79.8931 36.4829 83.6774C29.1099 87.532 24.0544 91.8435 21.4351 98.1487C17.3391 108.009 22.3291 119.141 32.0566 123.182C36.7721 125.141 42.0144 125.344 46.8085 123.742C49.0705 128.288 52.9664 131.869 57.9548 133.941C67.8148 138.037 78.9475 133.047 82.9885 123.319C85.5437 117.168 84.9817 110.618 82.497 102.735C80.0541 94.9837 75.6104 85.5265 69.8961 73.3656L69.7158 72.9817Z" fill="#2FB855" stroke="#F9E212" stroke-width="5"/>
</svg>
